<svg width="322" height="322" viewBox="0 0 322 322" fill="none" xmlns="http://www.w3.org/2000/svg">
<g clip-path="url(#clip0)">
<path d="M187.201 211.948C184.854 202.135 177.068 194.348 167.148 192.001C158.935 190.081 150.615 192.001 144.108 197.121C137.708 202.241 133.975 210.028 133.975 218.241H147.842C147.842 214.294 149.549 210.561 152.749 208.001C155.949 205.548 160.002 204.588 164.056 205.548C168.749 206.721 172.696 210.561 173.763 215.255C174.936 220.375 173.23 225.388 169.176 228.588C159.576 236.161 154.029 247.041 154.029 258.455L167.896 258.242C167.896 251.095 171.309 244.375 177.709 239.362C186.028 232.748 189.654 222.295 187.201 211.948Z" fill="white"/>
<path d="M167.895 268.482H154.028V281.815H167.895V268.482Z" fill="white"/>
<path d="M305.814 114.988C297.814 106.455 287.574 100.588 276.267 97.815C279.04 89.175 280.214 80.215 279.574 71.148C278.401 52.161 269.761 34.348 255.147 20.908C240.64 7.575 221.867 0.214998 202.347 0.00099807C169.814 -0.212002 140.587 19.521 128.96 48.321C117.12 39.041 101.76 34.454 86.187 35.948C63.787 38.188 44.374 53.015 36.48 73.921C32.96 83.201 32 92.694 33.707 102.188C13.334 111.788 0 132.055 0 154.455C0 186.775 25.387 210.242 60.48 210.242H91.627C88.854 218.029 87.254 226.349 87.254 235.095C87.254 275.628 120.321 308.588 161.067 308.588C164.907 308.588 168.747 308.268 172.587 307.628L201.92 320.855C202.987 321.388 204.053 321.602 205.12 321.602C208.533 321.602 211.627 319.149 212.48 315.735L212.587 315.308L216.96 282.455C228.48 269.548 234.88 252.802 234.88 234.988C234.88 229.655 234.24 224.321 233.173 219.308H244.693H245.013C272.426 216.961 292.906 208.855 305.92 195.201C316.16 184.428 321.6 170.241 321.6 154.241C321.601 139.735 315.948 125.762 305.814 114.988ZM205.334 274.562L203.734 276.162L200.001 304.749L174.294 293.229L172.161 293.656C168.428 294.403 164.694 294.723 161.068 294.723C128.001 294.723 101.121 267.95 101.121 235.096C101.121 202.243 128.001 175.469 161.068 175.363C194.135 175.363 221.015 202.136 221.015 234.99C221.014 250.028 215.468 264.108 205.334 274.562ZM244.054 205.442H228.587C217.174 179.629 191.147 161.495 161.067 161.495C134.614 161.602 111.467 175.575 98.347 196.375H60.481C33.068 196.375 13.868 179.095 13.868 154.455C13.868 135.895 26.028 119.148 44.161 112.855L50.348 110.722L48.535 104.429C46.082 95.789 46.402 87.256 49.602 78.829C55.469 62.829 70.402 51.522 87.469 49.816C102.616 48.323 117.336 54.296 126.829 65.496L135.789 76.163L138.882 62.616C145.282 34.243 171.949 13.763 202.135 13.976C235.308 14.189 263.788 40.323 265.708 72.109C266.348 81.922 264.641 91.416 260.481 100.482L256.428 109.335L266.135 110.188C289.495 112.321 307.735 131.628 307.735 154.241C307.734 175.042 296.641 200.855 244.054 205.442Z" fill="white"/>
</g>
<defs>
<clipPath id="clip0">
<rect width="321.602" height="321.602" fill="white"/>
</clipPath>
</defs>
</svg>
