<svg width="64" height="64" viewBox="0 0 64 64" fill="none" xmlns="http://www.w3.org/2000/svg">
<g clip-path="url(#clip0)">
<path d="M5 0C3.67392 0 2.40215 0.526784 1.46447 1.46447C0.526784 2.40215 0 3.67392 0 5L0 59C0 60.3261 0.526784 61.5979 1.46447 62.5355C2.40215 63.4732 3.67392 64 5 64H59C60.3261 64 61.5979 63.4732 62.5355 62.5355C63.4732 61.5979 64 60.3261 64 59V5C64 3.67392 63.4732 2.40215 62.5355 1.46447C61.5979 0.526784 60.3261 0 59 0L5 0Z" fill="#BDBDBD"/>
<path d="M17.6 21.452C17.845 22.452 17.707 23.532 17.948 24.549C18.788 23.934 19.348 22.919 19.233 21.862C19.216 19.97 17.088 18.487 15.307 19.124C14.187 19.444 13.359 20.449 13.171 21.584C12.947 22.884 13.728 24.214 14.889 24.808C14.774 23.688 14.505 22.508 14.806 21.412C15.266 20.218 17.176 20.242 17.601 21.452H17.6ZM50.738 22.808C51.146 21.34 50.258 19.638 48.802 19.168C47.402 18.618 45.669 19.318 45.052 20.682C44.364 21.945 44.78 23.742 46.038 24.482C46.286 23.468 46.103 22.382 46.398 21.397C46.868 20.22 48.753 20.254 49.182 21.447C49.455 22.513 49.208 23.633 49.105 24.709C49.959 24.445 50.492 23.629 50.737 22.811L50.738 22.808Z" fill="#898989"/>
<path d="M46.4 21.396C46.104 22.391 46.287 23.468 46.04 24.481C45.308 28.881 42.362 32.813 38.373 34.784C36.3874 35.7832 34.1949 36.3023 31.9721 36.2995C29.7493 36.2968 27.5581 35.7722 25.575 34.768C21.623 32.802 18.7 28.903 17.949 24.55C17.709 23.532 17.845 22.463 17.601 21.453C17.177 20.253 15.267 20.218 14.807 21.413C14.507 22.519 14.777 23.69 14.89 24.809C15.73 30.249 19.37 35.134 24.302 37.559C26.5686 38.6803 29.0531 39.2924 31.5812 39.3521C34.1093 39.4119 36.6199 38.918 38.937 37.905C44.27 35.602 48.257 30.459 49.11 24.705C49.213 23.629 49.46 22.508 49.186 21.443C48.756 20.25 46.872 20.217 46.401 21.393L46.4 21.396Z" fill="#DFDFDF"/>
<path d="M5 0C3.67392 0 2.40215 0.526784 1.46447 1.46447C0.526784 2.40215 0 3.67392 0 5L0 14.5C0 13.1739 0.526784 11.9021 1.46447 10.9645C2.40215 10.0268 3.67392 9.5 5 9.5H59C60.3261 9.5 61.5979 10.0268 62.5355 10.9645C63.4732 11.9021 64 13.1739 64 14.5V5C64 3.67392 63.4732 2.40215 62.5355 1.46447C61.5979 0.526784 60.3261 0 59 0L5 0Z" fill="#D0D0D0"/>
</g>
<defs>
<clipPath id="clip0">
<rect width="64" height="64" fill="white"/>
</clipPath>
</defs>
</svg>
