<svg width="513" height="513" viewBox="0 0 513 513" fill="none" xmlns="http://www.w3.org/2000/svg">
<g clip-path="url(#clip0)">
<path d="M451.649 213.957L216.982 128.624C211.444 126.616 205.326 129.477 203.318 135.015C202.427 137.472 202.469 140.17 203.436 142.597L246.103 249.264C247.192 251.984 249.352 254.137 252.076 255.216L320.812 282.437L125.377 391.023L178.198 338.202C180.205 336.201 181.333 333.484 181.334 330.65V53.317C181.333 48.959 178.681 45.04 174.635 43.418L67.969 0.750998C64.681 -0.546002 60.966 -0.147002 58.028 1.818C55.095 3.801 53.336 7.11 53.335 10.65V437.317C53.335 437.616 53.57 437.872 53.591 438.17C53.686 439.816 54.168 441.417 54.999 442.842C55.425 443.379 55.904 443.873 56.428 444.314C57.031 445.126 57.749 445.845 58.561 446.447L165.228 510.447C168.635 512.521 172.914 512.521 176.321 510.447L453.654 339.78C456.799 337.815 458.697 334.357 458.667 330.649V223.983C458.669 219.498 455.864 215.491 451.649 213.957Z" fill="#BDBDBD"/>
</g>
<defs>
<clipPath id="clip0">
<rect width="512.003" height="512.003" fill="white"/>
</clipPath>
</defs>
</svg>
