<?xml version="1.0" ?><!DOCTYPE svg  PUBLIC '-//W3C//DTD SVG 1.1//EN'  'http://www.w3.org/Graphics/SVG/1.1/DTD/svg11.dtd'><svg height="512px" style="enable-background:new 0 0 512 512;" version="1.1" viewBox="0 0 512 512" width="512px" xml:space="preserve" xmlns="http://www.w3.org/2000/svg" xmlns:xlink="http://www.w3.org/1999/xlink"><g id="_x31_50-google"><g><g><path d="M468.99,224.42c2.04,11.27,3.46,22.09,3.46,36.73c0,68.899-25.9,126.89-70.261,165.189     l-58.54-58.54c25.94-20.88,37.86-49.21,40.801-67.71h-114.9v-75.67H468.99z" style="fill:#3B7DED;"/></g><g><path d="M407.07,93.57l-59.881,57.58c-65.359-63.07-177.6-33.98-212.97,49.22L73,139.15     C111.87,77.14,180.81,36,259.55,36C318.8,36,368.66,57.74,407.07,93.57z" style="fill:#E43E2B;"/></g><g><path d="M343.649,367.8l58.54,58.54C365.74,457.82,316.81,476,259.55,476     c-76.15,0-143.13-38.48-182.61-97.09l60.71-60.71c22.45,45.5,68.721,76.72,121.9,76.72C296.88,394.92,324.2,383.45,343.649,367.8     z" style="fill:#2BA24C;"/></g><g><path d="M137.649,318.2l-60.71,60.71C53.32,343.84,39.55,301.56,39.55,256     c0-42.97,12.25-83.02,33.45-116.85l61.22,61.22c-7.03,16.51-11.02,35.15-11.02,55.63C123.2,278.36,128.41,299.49,137.649,318.2z" style="fill:#F0B501;"/></g></g></g><g id="Layer_1"/></svg>