<svg width="512" height="512" viewBox="0 0 512 512" fill="none" xmlns="http://www.w3.org/2000/svg">
<path d="M282.208 19.67C278.56 16.662 273.728 15.414 269.056 16.278L13.056 64.278C5.472 65.686 0 72.278 0 79.99V431.99C0 439.67 5.472 446.294 13.056 447.702L269.056 495.702C270.016 495.894 271.04 495.99 272 495.99C275.68 495.99 279.328 494.71 282.208 492.31C285.888 489.27 288 484.726 288 479.99V31.99C288 27.222 285.888 22.71 282.208 19.67ZM256 460.694L32 418.71V93.27L256 51.286V460.694Z" fill="#ffffff"/>
<path d="M144 175.99C99.904 175.99 64 219.062 64 271.99C64 324.918 99.904 367.99 144 367.99C188.096 367.99 224 324.918 224 271.99C224 219.062 188.096 175.99 144 175.99ZM144 335.99C117.536 335.99 96 307.286 96 271.99C96 236.694 117.536 207.99 144 207.99C170.464 207.99 192 236.694 192 271.99C192 307.286 170.464 335.99 144 335.99Z" fill="#ffffff"/>
<path d="M496 111.99H272C263.168 111.99 256 119.158 256 127.99C256 136.822 263.168 143.99 272 143.99H480V367.99H272C263.168 367.99 256 375.158 256 383.99C256 392.822 263.168 399.99 272 399.99H496C504.832 399.99 512 392.822 512 383.99V127.99C512 119.158 504.832 111.99 496 111.99Z" fill="#ffffff"/>
<path d="M508.608 118.134C503.136 111.158 493.088 109.878 486.176 115.35L351.04 220.438L280.576 175.606C273.184 170.902 263.264 173.078 258.496 180.534C253.76 187.99 255.968 197.878 263.392 202.614L343.392 253.494C346.016 255.158 349.024 255.99 352 255.99C355.456 255.99 358.944 254.87 361.792 252.598L505.792 140.598C512.8 135.158 514.048 125.11 508.608 118.134Z" fill="#ffffff"/>
</svg>